<?xml version="1.0" standalone="no"?>
<!DOCTYPE svg PUBLIC "-//W3C//DTD SVG 20010904//EN"
 "http://www.w3.org/TR/2001/REC-SVG-20010904/DTD/svg10.dtd">
<svg version="1.0" xmlns="http://www.w3.org/2000/svg"
 width="715.000000pt" height="693.000000pt" viewBox="0 0 715.000000 693.000000"
 preserveAspectRatio="xMidYMid meet">
<metadata>
Created by potrace 1.16, written by Peter Selinger 2001-2019
</metadata>
<g transform="translate(0.000000,693.000000) scale(0.100000,-0.100000)"
fill="#000000" stroke="none">
<path d="M2594 5137 l-972 -1682 974 -3 c536 -1 1413 -1 1949 0 l974 3 -970
1680 c-533 924 -973 1681 -977 1682 -4 2 -444 -754 -978 -1680z m1652 46 c-2
-10 -17 -79 -31 -153 -15 -74 -31 -139 -36 -144 -5 -6 -20 0 -37 17 -15 15
-32 27 -38 26 -8 0 -150 -156 -260 -285 l-31 -36 -121 57 c-66 32 -128 55
-135 52 -8 -3 -143 -149 -298 -325 -156 -176 -288 -317 -293 -314 -11 6 -2
173 10 195 5 8 127 148 272 311 195 219 269 296 285 296 12 0 69 -23 126 -51
58 -27 111 -48 118 -47 7 2 60 57 118 122 l106 119 -33 34 c-17 18 -29 35 -26
38 5 6 287 103 301 104 5 1 6 -7 3 -16z m-1338 -730 l2 -643 635 0 635 0 0
-50 0 -50 -262 0 c-145 0 -455 -3 -690 -7 l-428 -6 0 695 c0 382 3 698 7 702
4 4 28 6 53 4 l45 -3 3 -642z m1180 -109 l-3 -469 -60 0 -60 0 -3 383 c-1 248
2 398 8 423 12 42 99 151 113 139 4 -3 6 -217 5 -476z m-407 254 c5 -7 9 -174
9 -370 l0 -358 -60 0 -60 0 0 395 0 394 51 -24 c29 -13 56 -30 60 -37z m207
-360 l-3 -363 -57 -3 -58 -3 0 346 c0 190 2 345 4 345 3 0 16 -4 30 -10 22 -8
28 -5 46 20 12 17 26 30 31 30 6 0 8 -140 7 -362z m-408 -23 l0 -345 -60 0
-60 0 0 258 c0 141 4 272 9 290 8 25 94 138 109 141 1 1 2 -154 2 -344z m-200
-115 l0 -230 -60 0 -60 0 1 128 c1 191 6 211 62 276 27 31 50 56 53 56 2 0 4
-103 4 -230z m-200 -115 l0 -115 -55 0 c-54 0 -54 0 -61 34 -9 50 10 96 61
150 25 25 47 46 50 46 3 0 5 -52 5 -115z"/>
<path d="M1821 2867 c-14 -33 -28 -47 -59 -61 -24 -11 -51 -16 -65 -12 -19 4
-35 -3 -73 -37 -100 -87 -136 -143 -154 -237 -13 -68 -13 -160 0 -160 6 0 10
7 10 15 0 60 71 186 126 224 38 26 63 19 102 -30 29 -36 39 -36 81 -1 34 28
34 28 17 59 -23 46 -20 65 17 101 25 24 42 32 69 32 46 0 68 8 68 25 0 8 -17
39 -37 69 -49 71 -76 75 -102 13z"/>
<path d="M2823 2704 c-24 -20 -43 -41 -43 -48 0 -17 78 -106 93 -106 14 0 97
81 97 94 0 14 -81 96 -95 96 -5 0 -29 -16 -52 -36z"/>
<path d="M2066 2621 c-9 -13 -9 -49 -1 -107 l7 -51 74 -7 c147 -13 261 -64
359 -162 175 -172 221 -427 117 -648 -105 -223 -369 -354 -606 -301 -232 51
-399 223 -442 455 -28 149 0 284 86 413 28 41 50 78 50 81 0 13 -86 45 -129
48 -41 3 -43 2 -78 -55 l-36 -57 31 -44 c35 -48 37 -63 19 -115 -10 -27 -21
-36 -62 -50 -55 -18 -62 -31 -64 -114 l-1 -48 54 -24 c49 -22 54 -27 65 -71
l12 -47 -42 -43 -42 -43 32 -65 c19 -36 39 -67 45 -69 7 -3 34 -1 61 4 47 9
48 8 81 -29 22 -24 32 -44 29 -57 -21 -97 -21 -97 44 -138 l61 -39 37 29 c56
44 56 44 108 25 45 -16 49 -21 62 -67 8 -28 20 -53 27 -57 6 -4 39 -8 74 -8
l63 0 24 54 c23 53 25 54 75 61 50 7 53 6 90 -30 l38 -37 55 26 c72 35 76 41
67 101 -8 49 -7 50 33 88 30 27 47 37 62 33 11 -4 37 -9 57 -12 36 -6 38 -5
72 49 20 31 36 60 36 65 0 5 -13 26 -30 47 -33 42 -35 51 -19 106 11 35 17 40
68 57 l56 19 3 72 3 72 -55 24 c-48 21 -56 29 -65 62 -16 57 -14 66 24 103 19
19 35 41 35 49 0 9 -14 40 -31 70 l-31 54 -57 -6 c-57 -6 -58 -6 -95 32 -36
37 -37 39 -27 82 16 68 15 72 -49 112 l-60 39 -37 -29 c-56 -44 -57 -44 -105
-27 -41 14 -46 19 -61 68 -15 47 -21 54 -48 60 -46 9 -117 7 -123 -3z"/>
<path d="M2650 2588 c-19 -5 -50 -24 -67 -41 l-33 -31 21 -22 c20 -21 20 -27
9 -73 -11 -47 -10 -52 12 -81 22 -29 24 -30 88 -24 72 6 98 23 124 79 9 18 16
51 16 73 0 34 -6 45 -50 86 -51 48 -62 51 -120 34z"/>
<path d="M1813 2527 c-18 -12 -33 -25 -33 -29 0 -4 43 -74 96 -157 l97 -150
27 15 c14 9 36 24 49 33 l22 17 -101 147 c-56 81 -107 147 -113 146 -7 0 -27
-10 -44 -22z"/>
<path d="M2067 2372 l-27 -7 26 -37 c23 -32 29 -36 47 -27 11 6 40 9 66 6 35
-4 51 -12 71 -35 51 -61 81 -107 86 -132 3 -14 9 -32 15 -40 5 -8 16 -31 25
-50 9 -19 25 -52 36 -72 15 -29 18 -49 13 -82 -6 -39 -4 -48 28 -89 38 -50 52
-94 42 -129 -10 -34 -54 -76 -85 -83 -39 -9 -107 21 -127 56 -22 37 -35 36
-80 -5 -21 -18 -57 -43 -79 -54 -38 -19 -84 -76 -123 -149 -10 -20 -8 -23 26
-30 65 -14 184 -6 247 16 160 56 283 195 317 359 16 80 6 196 -23 270 -25 60
-25 61 -6 80 19 19 19 21 3 46 -17 25 -19 26 -36 10 -25 -23 -37 -9 -14 16 15
16 16 22 5 35 -12 14 -15 14 -30 0 -17 -15 -40 -20 -40 -8 0 3 7 15 16 25 14
14 15 20 4 33 -12 14 -15 13 -35 -5 -13 -12 -26 -17 -29 -12 -3 5 1 15 9 22
21 18 19 29 -10 42 -20 9 -28 8 -42 -5 -16 -14 -24 -13 -88 8 -77 25 -165 37
-208 27z"/>
<path d="M1790 2244 c-34 -33 -73 -78 -87 -102 -65 -110 -82 -269 -42 -396
l20 -67 27 23 c50 41 112 122 122 158 5 20 14 81 20 136 12 117 25 160 51 174
26 14 24 23 -15 82 l-35 51 -61 -59z"/>
<path d="M1998 2187 c-37 -24 -75 -49 -83 -58 -10 -10 -19 -51 -25 -124 -6
-61 -15 -126 -20 -146 -13 -49 -61 -118 -121 -174 l-50 -47 73 -71 c40 -40 98
-85 128 -101 50 -28 55 -28 64 -11 53 89 91 139 117 153 18 9 51 33 74 53 23
19 56 41 73 48 18 8 32 16 32 20 0 11 -73 116 -87 124 -7 4 -13 15 -13 22 0
21 -30 19 -46 -2 -11 -15 -13 -10 -13 39 0 62 -29 144 -55 154 -21 8 -20 24 0
24 13 0 15 6 10 28 l-7 27 19 -30 c27 -43 64 -60 104 -49 46 13 47 38 4 80
-20 20 -44 46 -52 60 -22 33 -48 29 -126 -19z"/>
<path d="M2246 2035 c-27 -24 -65 -48 -85 -52 -33 -8 -36 -12 -36 -43 0 -33 2
-35 30 -33 47 2 189 84 193 110 3 20 -28 64 -45 63 -5 -1 -30 -21 -57 -45z"/>
<path d="M2261 1934 c-46 -23 -86 -46 -90 -49 -10 -11 31 -35 60 -35 15 0 49
9 74 20 35 15 51 18 61 9 18 -15 30 51 15 80 -15 27 -21 26 -120 -25z"/>
<path d="M2310 1850 c-19 -11 -50 -19 -68 -20 l-33 0 61 -90 c34 -50 72 -96
86 -102 52 -24 115 28 101 84 -7 27 -94 148 -105 148 -4 -1 -23 -9 -42 -20z"/>
<path d="M332 408 l3 -233 43 -3 42 -3 0 235 0 236 -45 0 -45 0 2 -232z"/>
<path d="M548 535 c-51 -58 -93 -110 -93 -115 0 -5 44 -64 99 -130 l99 -121
99 3 100 3 72 178 c40 98 77 177 82 176 9 -3 64 -125 64 -141 0 -4 -18 -8 -40
-8 -34 0 -42 -4 -55 -30 -8 -16 -15 -34 -15 -39 0 -6 34 -11 76 -13 l76 -3 26
-62 26 -63 43 0 c24 0 43 3 43 8 0 4 -44 109 -97 235 l-98 227 -48 -2 -49 -3
-89 -210 c-49 -116 -92 -218 -97 -228 -6 -15 -26 3 -115 104 l-107 122 95 102
c52 57 95 106 95 109 0 3 -22 6 -49 6 l-49 0 -94 -105z"/>
<path d="M1312 408 l3 -233 43 -3 42 -3 0 196 0 196 82 -3 c80 -3 83 -4 92
-31 13 -37 -17 -77 -75 -98 -24 -9 -45 -23 -47 -31 -1 -8 30 -61 70 -119 l73
-104 53 -3 c28 -2 52 -1 52 3 0 3 -32 48 -71 101 -39 53 -69 97 -67 98 59 43
79 63 92 91 20 42 20 68 0 110 -25 54 -62 65 -213 65 l-131 0 2 -232z"/>
<path d="M1750 404 l0 -235 38 3 37 3 5 149 5 149 60 -149 60 -149 36 -3 36
-3 58 151 c32 83 62 153 67 156 4 3 8 -65 8 -151 l0 -156 38 3 37 3 3 233 2
233 -47 -3 -47 -3 -75 -173 c-69 -159 -76 -171 -87 -150 -7 13 -43 92 -80 176
l-68 152 -43 0 -43 0 0 -236z"/>
<path d="M2476 608 c-142 -336 -176 -419 -176 -428 0 -7 16 -10 41 -8 l41 3
71 176 c40 96 76 176 81 178 8 2 66 -120 66 -140 0 -5 -18 -9 -40 -9 -34 0
-42 -4 -55 -30 -8 -16 -15 -34 -15 -39 0 -6 34 -11 76 -13 l76 -3 26 -62 26
-63 43 0 c24 0 43 3 43 8 0 4 -44 109 -97 234 l-98 228 -47 0 c-44 0 -49 -2
-62 -32z"/>
<path d="M2913 628 c-52 -17 -85 -60 -91 -116 -9 -100 41 -142 172 -142 81 0
106 -13 106 -54 0 -57 -63 -81 -174 -65 -37 5 -72 12 -77 15 -5 3 -9 -13 -9
-35 0 -36 3 -42 28 -48 15 -4 70 -8 122 -8 81 0 100 3 130 22 43 27 58 50 65
100 13 98 -40 144 -172 151 -76 4 -86 7 -100 29 -15 22 -15 26 4 51 32 43 106
53 201 28 l52 -13 0 38 c0 35 -3 39 -37 48 -47 13 -177 12 -220 -1z"/>
<path d="M3310 423 c-51 -120 -95 -226 -98 -236 -4 -16 1 -18 38 -15 l43 3 73
180 c41 99 75 184 77 189 2 5 19 -29 39 -75 19 -46 33 -87 31 -91 -2 -5 -24
-8 -48 -8 -39 0 -44 -3 -54 -31 -6 -18 -11 -34 -11 -35 0 -2 34 -4 75 -4 l75
0 29 -65 c30 -64 30 -65 70 -65 23 0 41 3 41 8 0 4 -43 109 -97 235 l-98 227
-46 0 -46 0 -93 -217z"/>
<path d="M3760 405 l0 -236 38 3 37 3 5 168 5 167 120 -167 120 -168 43 -3 42
-3 0 235 0 236 -40 0 -40 0 0 -167 c0 -134 -3 -165 -12 -155 -7 7 -63 81 -124
165 -110 151 -111 152 -152 155 l-42 3 0 -236z"/>
<path d="M4383 624 c-115 -41 -163 -193 -106 -336 38 -94 167 -138 313 -107
l50 11 0 99 0 100 -42 -3 -43 -3 -3 -66 c-3 -64 -4 -67 -31 -72 -59 -12 -133
18 -156 63 -41 79 -27 182 32 227 30 23 45 27 102 28 36 0 83 -4 104 -8 l38
-8 -3 38 c-3 33 -7 39 -33 44 -55 12 -179 8 -222 -7z"/>
<path d="M4795 629 c-60 -19 -95 -65 -95 -127 0 -95 49 -132 173 -132 59 0 77
-4 90 -18 36 -40 13 -88 -48 -102 -38 -9 -150 1 -189 16 -13 5 -16 -1 -16 -30
0 -50 23 -60 150 -60 92 -1 109 2 141 22 47 29 73 89 63 145 -12 74 -71 107
-189 107 -33 0 -65 4 -71 8 -19 13 -24 41 -12 67 19 43 108 57 206 31 l52 -13
0 38 c0 35 -3 39 -37 48 -46 13 -176 13 -218 0z"/>
<path d="M5090 605 l0 -34 68 -3 67 -3 3 -197 2 -198 40 0 40 0 2 197 3 198
63 3 62 3 0 34 0 35 -175 0 -175 0 0 -35z"/>
<path d="M5500 405 l0 -235 40 0 40 0 0 100 0 100 115 0 115 0 0 -101 0 -100
43 3 42 3 3 233 2 232 -45 0 -45 0 0 -95 0 -95 -115 0 -115 0 0 95 0 95 -40 0
-40 0 0 -235z"/>
<path d="M6057 412 c-53 -125 -97 -231 -97 -236 0 -4 19 -6 42 -4 l42 3 76
188 77 188 36 -83 c19 -45 33 -86 31 -90 -3 -5 -25 -8 -48 -8 -33 0 -45 -4
-49 -17 -2 -10 -8 -26 -12 -35 -6 -16 1 -18 71 -18 l79 0 25 -63 c25 -61 26
-62 68 -65 26 -2 42 1 42 8 0 6 -44 112 -97 236 l-97 224 -46 0 -47 0 -96
-228z"/>
<path d="M6510 405 l0 -235 40 0 40 0 2 171 3 171 120 -168 121 -169 42 -3 42
-3 0 235 0 236 -40 0 -40 0 -2 -167 -3 -168 -120 167 -120 167 -42 0 -43 1 0
-235z"/>
</g>
</svg>
